<?xml version="1.0" encoding="UTF-8"?>
<svg width="260px" height="60px" viewBox="0 0 260 60" version="1.1" xmlns="http://www.w3.org/2000/svg" xmlns:xlink="http://www.w3.org/1999/xlink">
    <!-- Generator: Sketch 50.2 (55047) - http://www.bohemiancoding.com/sketch -->
    <title>GenAlpha_SVG</title>
    <desc>Created with Sketch.</desc>
    <defs></defs>
    <g id="GenAlpha_SVG" stroke="none" stroke-width="1" fill="none" fill-rule="evenodd">
        <path d="M77.6265467,17.1876248 C76.0607424,15.760479 73.6850394,15.007984 71.6332958,15.007984 C66.7739033,15.007984 63.5883015,17.6806387 63.5883015,23.0518962 C63.5883015,26.5548902 65.5860517,30.9401198 71.6332958,30.9401198 C73.4150731,30.9401198 75.0888639,30.6546906 77.0866142,29.2275449 L77.0866142,25.3093812 L70.9853768,25.3093812 L70.9853768,20.742515 L82,20.742515 L82,31.4331337 C79.8132733,34.4431138 76.303712,36 71.5793026,36 C61.7255343,36 58,29.4351297 58,23.0518962 C58,16.1497006 62.2384702,10 71.6062992,10 C75.0618673,10 78.2204724,10.9081836 81.136108,13.7884232 L77.6265467,17.1876248 Z" id="Shape" fill="#FFFFFF" fill-rule="nonzero"></path>
        <path d="M104,36 L85,36 C85,27.6842661 85,19.3157339 85,11 L103.499307,11 L103.499307,16.095037 L90.4549237,16.095037 L90.4549237,20.8996832 L102.761442,20.8996832 L102.761442,25.7835269 L90.4549237,25.7835269 L90.4549237,30.8257656 L104,30.8257656 L104,36 Z" id="Shape" fill="#FFFFFF" fill-rule="nonzero"></path>
        <polygon id="Shape" fill="#FFFFFF" fill-rule="nonzero" points="125.923077 27.2618796 125.564103 19.3949314 125.564103 11 131 11 131 36 126.358974 36 114.282051 20.0021119 114.487179 28.2122492 114.487179 36 109 36 109 11 113.641026 11"></polygon>
        <path d="M153.564103,30.7465681 L140.410256,30.7465681 L138.128205,36 L134,36 L144.897436,11 L149.102564,11 L160,36 L155.871795,36 L153.564103,30.7465681 Z M147,15.2238648 L141.871795,27.1034847 L152.128205,27.1034847 L147,15.2238648 Z" id="Shape" fill="#FFFFFF" fill-rule="nonzero"></path>
        <polygon id="Shape" fill="#FFFFFF" fill-rule="nonzero" points="166.969278 11 166.969278 32.2777191 180 32.2777191 180 36 163 36 163 11"></polygon>
        <path d="M187.884868,28.3259494 L187.884868,36 L184,36 L184,11.0263713 C187.730503,11.0263713 191.538188,11 195.268691,11 C206.897569,11 206.923297,28.2732068 195.268691,28.3259494 L187.884868,28.3259494 Z M187.884868,24.6603376 L195.268691,24.6603376 C201.700593,24.6603376 201.674865,14.6656118 195.268691,14.6656118 L187.884868,14.6656118 L187.884868,24.6603376 Z" id="Shape" fill="#FFFFFF" fill-rule="nonzero"></path>
        <polygon id="Shape" fill="#FFFFFF" fill-rule="nonzero" points="225.072319 36 225.072319 25.5987328 211.98005 25.5987328 211.98005 36 208 36 208 11 211.98005 11 211.98005 21.876452 225.072319 21.876452 225.072319 11 229 11 229 36"></polygon>
        <path d="M252.544828,30.7465681 L239.403941,30.7465681 L237.124138,36 L233,36 L243.8867,11 L248.1133,11 L259,36 L254.875862,36 L252.544828,30.7465681 Z M245.987192,15.2238648 L240.864039,27.1034847 L251.110345,27.1034847 L245.987192,15.2238648 Z" id="Shape" fill="#FFFFFF" fill-rule="nonzero"></path>
        <path d="M66.0333768,48.8185185 L61.2335072,48.8185185 C61.2335072,46.6407407 61.2335072,44.462963 61.2335072,42.3111111 L66.0074316,42.3111111 L66.0074316,43.3222222 L62.2713168,43.3222222 L62.2713168,45.0851852 L65.8777053,45.0851852 L65.8777053,46.0444444 L62.2713168,46.0444444 L62.2713168,47.7814815 L66.0333768,47.7814815 L66.0333768,48.8185185 Z" id="Shape" fill="#FFFFFF" fill-rule="nonzero"></path>
        <path d="M74.1542373,43.8407407 L71.9488918,46.9259259 L71.7153846,46.9259259 L69.5359844,43.8407407 L69.5359844,48.8444444 L68.4981747,48.8444444 L68.4981747,42.337037 C68.9132986,42.337037 69.2765319,42.337037 69.717601,42.337037 L71.8710561,45.3962963 L74.0245111,42.337037 L75.2439374,42.337037 L75.2439374,48.8444444 L74.2061278,48.8444444 L74.2061278,43.8407407 L74.1542373,43.8407407 Z" id="Shape" fill="#FFFFFF" fill-rule="nonzero"></path>
        <path d="M79.0059974,46.8222222 L79.0059974,48.8185185 L77.9681877,48.8185185 L77.9681877,42.3111111 C78.9541069,42.3111111 79.9919166,42.3111111 80.9778357,42.3111111 C84.0912647,42.3111111 84.0912647,46.8222222 80.9778357,46.8222222 L79.0059974,46.8222222 Z M79.0059974,45.862963 L80.9778357,45.862963 C82.7161669,45.862963 82.6902216,43.2703704 80.9778357,43.2703704 L79.0059974,43.2703704 L79.0059974,45.862963 Z" id="Shape" fill="#FFFFFF" fill-rule="nonzero"></path>
        <path d="M91.7970013,45.5777778 C91.7970013,47.3407407 90.7332464,48.9481481 88.4500652,48.9481481 C86.1928292,48.9481481 85.1031291,47.3148148 85.1031291,45.5777778 C85.1031291,43.6074074 86.5041721,42.1555556 88.4500652,42.1555556 C90.7073012,42.1814815 91.7970013,43.8407407 91.7970013,45.5777778 Z M88.4500652,47.9888889 C90.0586701,47.9888889 90.7591917,46.8481481 90.7591917,45.6037037 C90.7591917,44.4111111 90.0846154,43.1666667 88.4760104,43.1407407 C86.9711864,43.1407407 86.166884,44.2037037 86.166884,45.6037037 C86.166884,46.7703704 86.8414602,47.9888889 88.4500652,47.9888889 Z" id="Shape" fill="#FFFFFF" fill-rule="nonzero"></path>
        <polygon id="Shape" fill="#FFFFFF" fill-rule="nonzero" points="100.644329 48.8185185 99.7102999 48.8185185 98.8541069 46.5111111 98.1535854 44.3333333 97.4271186 46.537037 96.5709257 48.8185185 95.6628422 48.8185185 93.3018253 42.3111111 94.4693611 42.3111111 96.1298566 47.3148148 97.8162973 42.3111111 98.4908735 42.3111111 100.203259 47.3148148 101.83781 42.3111111 103.005346 42.3111111"></polygon>
        <path d="M109.90678,48.8185185 L105.080965,48.8185185 C105.080965,46.6407407 105.080965,44.462963 105.080965,42.3111111 L109.854889,42.3111111 L109.854889,43.3222222 L106.118774,43.3222222 L106.118774,45.0851852 L109.699218,45.0851852 L109.699218,46.0444444 L106.118774,46.0444444 L106.118774,47.7814815 L109.880834,47.7814815 L109.880834,48.8185185 L109.90678,48.8185185 Z" id="Shape" fill="#FFFFFF" fill-rule="nonzero"></path>
        <path d="M117.97575,48.8185185 L116.756323,48.8185185 L114.75854,46.562963 L113.409387,46.562963 L113.409387,48.8185185 L112.371578,48.8185185 L112.371578,42.2851852 C113.383442,42.2851852 114.395306,42.2851852 115.407171,42.2851852 C116.911995,42.2851852 117.716297,43.3222222 117.716297,44.4111111 C117.716297,45.3444444 117.223338,46.2518519 115.952021,46.4333333 L117.897914,48.6111111 L117.97575,48.8185185 Z M113.409387,43.2444444 L113.409387,45.6037037 L115.381226,45.6037037 C116.237419,45.6037037 116.626597,45.0592593 116.626597,44.437037 C116.626597,43.8407407 116.237419,43.2444444 115.381226,43.2444444 L113.409387,43.2444444 Z" id="Shape" fill="#FFFFFF" fill-rule="nonzero"></path>
        <polygon id="Shape" fill="#FFFFFF" fill-rule="nonzero" points="120.181095 48.8185185 120.181095 42.3111111 121.218905 42.3111111 121.218905 48.8185185"></polygon>
        <polygon id="Shape" fill="#FFFFFF" fill-rule="nonzero" points="128.483572 46.9259259 128.483572 42.2851852 129.521382 42.2851852 129.521382 48.7925926 128.743025 48.7925926 125.058801 44.2037037 125.058801 48.7925926 123.995046 48.7925926 123.995046 42.2851852 124.799348 42.2851852"></polygon>
        <path d="M137.071447,43.7888889 C136.604433,43.3222222 135.903911,43.0888889 135.307171,43.0888889 C133.776402,43.0888889 132.894263,44.2296296 132.894263,45.6037037 C132.894263,46.7962963 133.594785,47.962963 135.307171,47.962963 C135.877966,47.962963 136.370926,47.8333333 136.889831,47.3925926 L136.889831,46.0703704 L135.073664,46.0703704 L135.073664,45.137037 L137.849804,45.137037 L137.849804,47.8074074 C137.201173,48.5333333 136.396871,48.9481481 135.281226,48.9481481 C132.894263,48.9481481 131.856454,47.3666667 131.856454,45.6296296 C131.856454,43.762963 133.049935,42.1555556 135.281226,42.1555556 C136.137419,42.1555556 137.019557,42.4925926 137.694133,43.1407407 L137.071447,43.7888889 Z" id="Shape" fill="#FFFFFF" fill-rule="nonzero"></path>
        <polygon id="Shape" fill="#FFFFFF" fill-rule="nonzero" points="145.763103 45.1888889 147.605215 42.3111111 148.850587 42.3111111 148.850587 42.362963 146.256063 46.1481481 146.256063 48.8185185 145.218253 48.8185185 145.218253 46.1481481 142.701565 42.362963 142.701565 42.3111111 143.946936 42.3111111"></polygon>
        <path d="M156.711995,45.5777778 C156.711995,47.3407407 155.64824,48.9481481 153.391004,48.9481481 C151.133768,48.9481481 150.070013,47.3148148 150.070013,45.5777778 C150.070013,43.6074074 151.445111,42.1555556 153.416949,42.1555556 C155.622295,42.1814815 156.711995,43.8407407 156.711995,45.5777778 Z M153.365059,47.9888889 C154.973664,47.9888889 155.674185,46.8481481 155.674185,45.6037037 C155.674185,44.4111111 154.973664,43.1666667 153.391004,43.1407407 C151.88618,43.1407407 151.081877,44.2037037 151.081877,45.6037037 C151.081877,46.7703704 151.756454,47.9888889 153.365059,47.9888889 Z" id="Shape" fill="#FFFFFF" fill-rule="nonzero"></path>
        <path d="M164.495567,42.3111111 L164.495567,46.1222222 C164.495567,48.0407407 163.22425,49 161.667536,48.9481481 C160.214602,48.8962963 158.969231,47.9888889 158.969231,46.1222222 L158.969231,42.3111111 L160.00704,42.3111111 L160.00704,46.1222222 C160.00704,47.3148148 160.707562,47.937037 161.667536,47.9888889 C162.705346,48.0407407 163.483703,47.3666667 163.483703,46.1222222 L163.483703,42.3111111 L164.495567,42.3111111 Z" id="Shape" fill="#FFFFFF" fill-rule="nonzero"></path>
        <path d="M172.798044,48.8185185 L171.578618,48.8185185 L169.60678,46.562963 L168.231682,46.562963 L168.231682,48.8185185 L167.193872,48.8185185 L167.193872,42.2851852 C168.205737,42.2851852 169.217601,42.2851852 170.229465,42.2851852 C171.734289,42.2851852 172.538592,43.3222222 172.538592,44.4111111 C172.538592,45.3444444 172.045632,46.2518519 170.774316,46.4333333 L172.720209,48.6111111 L172.798044,48.8185185 Z M168.231682,43.2444444 L168.231682,45.6037037 L170.20352,45.6037037 C171.059713,45.6037037 171.448892,45.0592593 171.448892,44.437037 C171.448892,43.8407407 171.059713,43.2444444 170.20352,43.2444444 L168.231682,43.2444444 Z" id="Shape" fill="#FFFFFF" fill-rule="nonzero"></path>
        <path d="M182.683181,47.4444444 L179.154628,47.4444444 L178.531943,48.8185185 L177.416297,48.8185185 L180.34811,42.3111111 L181.4897,42.3111111 L184.421512,48.8185185 L183.305867,48.8185185 L182.683181,47.4444444 Z M180.918905,43.4 L179.543807,46.4851852 L182.294003,46.4851852 L180.918905,43.4 Z" id="Shape" fill="#FFFFFF" fill-rule="nonzero"></path>
        <polygon id="Shape" fill="#FFFFFF" fill-rule="nonzero" points="186.419296 48.8185185 186.419296 42.3111111 191.037549 42.3111111 191.037549 43.3222222 187.483051 43.3222222 187.483051 45.2925926 190.881877 45.2925926 190.881877 46.2518519 187.483051 46.2518519 187.483051 48.7925926 186.419296 48.7925926"></polygon>
        <path d="M194.851499,43.2444444 L192.72399,43.2444444 L192.72399,42.3111111 C194.592047,42.3111111 196.174707,42.3111111 198.042764,42.3111111 L198.042764,43.2444444 L195.915254,43.2444444 L195.915254,48.8185185 L194.877445,48.8185185 L194.877445,43.2444444 L194.851499,43.2444444 Z" id="Shape" fill="#FFFFFF" fill-rule="nonzero"></path>
        <path d="M204.944198,48.8185185 L200.118383,48.8185185 C200.118383,46.6407407 200.118383,44.462963 200.118383,42.3111111 L204.892308,42.3111111 L204.892308,43.3222222 L201.156193,43.3222222 L201.156193,45.0851852 L204.762581,45.0851852 L204.762581,46.0444444 L201.156193,46.0444444 L201.156193,47.7814815 L204.918253,47.7814815 L204.918253,48.8185185 L204.944198,48.8185185 Z" id="Shape" fill="#FFFFFF" fill-rule="nonzero"></path>
        <path d="M213.039113,48.8185185 L211.819687,48.8185185 L209.847849,46.562963 L208.472751,46.562963 L208.472751,48.8185185 L207.434941,48.8185185 L207.434941,42.2851852 C208.446806,42.2851852 209.45867,42.2851852 210.470535,42.2851852 C211.975359,42.2851852 212.779661,43.3222222 212.779661,44.4111111 C212.779661,45.3444444 212.286701,46.2518519 211.015385,46.4333333 L212.961278,48.6111111 L213.039113,48.8185185 Z M208.446806,43.2444444 L208.446806,45.6037037 L210.444589,45.6037037 C211.300782,45.6037037 211.689961,45.0592593 211.689961,44.437037 C211.689961,43.8407407 211.300782,43.2444444 210.444589,43.2444444 L208.446806,43.2444444 Z" id="Shape" fill="#FFFFFF" fill-rule="nonzero"></path>
        <path d="M220.926467,43.8407407 L218.721121,46.9259259 L218.487614,46.9259259 L216.308214,43.8407407 L216.308214,48.8444444 L215.270404,48.8444444 L215.270404,42.337037 C215.685528,42.337037 216.048761,42.337037 216.489831,42.337037 L218.643286,45.3962963 L220.770795,42.337037 L221.990222,42.337037 L221.990222,48.8444444 L220.952412,48.8444444 L220.952412,43.8407407 L220.926467,43.8407407 Z" id="Shape" fill="#FFFFFF" fill-rule="nonzero"></path>
        <path d="M229.228944,47.4444444 L225.700391,47.4444444 L225.077705,48.8185185 L223.96206,48.8185185 L226.893872,42.3111111 L228.035463,42.3111111 L230.967275,48.8185185 L229.85163,48.8185185 L229.228944,47.4444444 Z M227.464668,43.4 L226.08957,46.4851852 L228.839765,46.4851852 L227.464668,43.4 Z" id="Shape" fill="#FFFFFF" fill-rule="nonzero"></path>
        <path d="M238.621121,48.8185185 L237.401695,48.8185185 L235.429857,46.562963 L234.054759,46.562963 L234.054759,48.8185185 L233.016949,48.8185185 L233.016949,42.2851852 C234.028814,42.2851852 235.040678,42.2851852 236.052542,42.2851852 C237.557366,42.2851852 238.361669,43.3222222 238.361669,44.4111111 C238.361669,45.3444444 237.868709,46.2518519 236.597392,46.4333333 L238.543286,48.6111111 L238.621121,48.8185185 Z M234.028814,43.2444444 L234.028814,45.6037037 L236.000652,45.6037037 C236.856845,45.6037037 237.246023,45.0592593 237.246023,44.437037 C237.246023,43.8407407 236.856845,43.2444444 236.000652,43.2444444 L234.028814,43.2444444 Z" id="Shape" fill="#FFFFFF" fill-rule="nonzero"></path>
        <polygon id="Shape" fill="#FFFFFF" fill-rule="nonzero" points="245.807953 42.337037 242.82425 45.4481481 246.067405 48.7407407 246.067405 48.8185185 244.770143 48.8185185 241.864276 45.837037 241.864276 48.8185185 240.826467 48.8185185 240.826467 42.3111111 241.864276 42.3111111 241.864276 45.1111111 244.510691 42.3111111 245.807953 42.3111111"></polygon>
        <path d="M252.787223,48.8185185 L247.961408,48.8185185 C247.961408,46.6407407 247.961408,44.462963 247.961408,42.3111111 L252.735332,42.3111111 L252.735332,43.3222222 L248.999218,43.3222222 L248.999218,45.0851852 L252.579661,45.0851852 L252.579661,46.0444444 L248.999218,46.0444444 L248.999218,47.7814815 L252.761278,47.7814815 L252.761278,48.8185185 L252.787223,48.8185185 Z" id="Shape" fill="#FFFFFF" fill-rule="nonzero"></path>
        <path d="M256.7309,43.2444444 L254.577445,43.2444444 L254.577445,42.3111111 C256.445502,42.3111111 258.028162,42.3111111 259.896219,42.3111111 L259.896219,43.2444444 L257.768709,43.2444444 L257.768709,48.8185185 L256.704954,48.8185185 L256.704954,43.2444444 L256.7309,43.2444444 Z" id="Shape" fill="#FFFFFF" fill-rule="nonzero"></path>
        <path d="M21.6071233,56 L19.3923288,49.3733133 C18.5167123,49.0874563 17.6410959,48.7236382 16.8169863,48.3078461 L10.610411,51.4522739 L4.58410959,45.4232884 L7.67452055,39.1604198 C7.26246575,38.3288356 6.90191781,37.4712644 6.61863014,36.5877061 L0,34.4047976 L0,25.8290855 L6.56712329,23.5942029 C6.85041096,22.7106447 7.2109589,21.8530735 7.6230137,20.9955022 L4.48109589,14.7326337 L10.4558904,8.65167416 L16.6624658,11.7701149 C17.4865753,11.3543228 18.3364384,10.9905047 19.2120548,10.6786607 L21.4010959,4 L29.8739726,4 L32.0887671,10.6266867 C32.9643836,10.9125437 33.84,11.2763618 34.6641096,11.6921539 L40.8706849,8.54772614 L46.8969863,14.5767116 L40.5358904,27.2323838 L38.269589,23.1264368 L42.1841096,15.3563218 L40.1238356,13.3033483 L34.6126027,16.109945 L33.7112329,15.5902049 C32.6038356,14.9665167 31.3676712,14.4467766 30.08,14.0829585 L29.1013699,13.7971014 L27.1183562,7.89805097 L24.1824658,7.89805097 L22.2509589,13.8490755 L21.2723288,14.1349325 C19.9846575,14.4987506 18.7742466,15.0184908 17.6410959,15.6681659 L16.739726,16.187906 L11.2284932,13.3813093 L9.16821918,15.4602699 L11.949589,21.0214893 L11.460274,21.9310345 C10.8164384,23.0744628 10.3271233,24.3218391 9.99232877,25.5952024 L9.7090411,26.6086957 L3.83726027,28.6096952 L3.83726027,31.5462269 L9.73479452,33.4952524 L10.0180822,34.4827586 C10.3786301,35.7821089 10.8936986,37.0034983 11.5375342,38.1469265 L12.0526027,39.0564718 L9.32273973,44.6436782 L11.3830137,46.7226387 L16.8942466,43.916042 L17.7956164,44.4097951 C18.9287671,45.0594703 20.1391781,45.5532234 21.4268493,45.8910545 L22.4312329,46.1769115 L24.4142466,52.101949 L27.3243836,52.101949 L29.2558904,46.1509245 L30.2345205,45.8650675 C31.5221918,45.5012494 32.7326027,44.9815092 33.8657534,44.3318341 L34.7671233,43.812094 L40.3041096,46.5667166 L42.3643836,44.4877561 L40.0465753,39.836082 L31.7539726,24.8675662 C30.6465753,22.9185407 27.8652055,21.8530735 25.7791781,21.8530735 C21.3238356,21.8790605 17.7183562,25.5172414 17.7441096,29.9870065 C17.769863,34.4307846 21.3753425,38.0689655 25.7791781,38.0689655 C27.4273973,38.0689655 28.9726027,37.5752124 30.2860274,36.6656672 L27.9167123,32.2738631 L22.0449315,32.2738631 L22.0449315,28.3758121 L30.2087671,28.3758121 L35.1019178,37.4972514 L34.0717808,38.5367316 C31.8312329,40.7456272 28.8953425,41.9670165 25.8049315,41.9670165 C19.2378082,41.9670165 13.8810959,36.6136932 13.8553425,30.0129935 C13.829589,23.3863068 19.1605479,17.9810095 25.7019178,17.9550225 C28.869589,17.9550225 33.1189041,19.5142429 35.050411,22.9445277 L43.3945205,38.0169915 L47,45.2413793 L41.0252055,51.3483258 L34.8186301,48.2298851 C33.9945205,48.6456772 33.1446575,49.0094953 32.2432877,49.2953523 L30.08,55.974013 L21.6071233,55.974013 L21.6071233,56 Z" id="Shape" fill="#FFFFFF" fill-rule="nonzero"></path>
    </g>
</svg>