<?xml version="1.0" encoding="UTF-8"?>
<svg width="260px" height="60px" viewBox="0 0 260 60" version="1.1" xmlns="http://www.w3.org/2000/svg" xmlns:xlink="http://www.w3.org/1999/xlink">
    <!-- Generator: Sketch 50.2 (55047) - http://www.bohemiancoding.com/sketch -->
    <title>GenAlpha_SVG</title>
    <desc>Created with Sketch.</desc>
    <defs></defs>
    <g id="GenAlpha_SVG" stroke="none" stroke-width="1" fill="none" fill-rule="evenodd">
        <g id="GenAlpha-Logo-01-(1)" transform="translate(0.000000, 4.000000)" fill-rule="nonzero">
            <path d="M77.6265467,13.1876248 C76.0607424,11.760479 73.6850394,11.007984 71.6332958,11.007984 C66.7739033,11.007984 63.5883015,13.6806387 63.5883015,19.0518962 C63.5883015,22.5548902 65.5860517,26.9401198 71.6332958,26.9401198 C73.4150731,26.9401198 75.0888639,26.6546906 77.0866142,25.2275449 L77.0866142,21.3093812 L70.9853768,21.3093812 L70.9853768,16.742515 L82,16.742515 L82,27.4331337 C79.8132733,30.4431138 76.303712,32 71.5793026,32 C61.7255343,32 58,25.4351297 58,19.0518962 C58,12.1497006 62.2384702,6 71.6062992,6 C75.0618673,6 78.2204724,6.90818363 81.136108,9.78842315 L77.6265467,13.1876248 Z" id="Shape" fill="#282932"></path>
            <path d="M104,32 L85,32 C85,23.6842661 85,15.3157339 85,7 L103.499307,7 L103.499307,12.095037 L90.4549237,12.095037 L90.4549237,16.8996832 L102.761442,16.8996832 L102.761442,21.7835269 L90.4549237,21.7835269 L90.4549237,26.8257656 L104,26.8257656 L104,32 Z" id="Shape" fill="#282932"></path>
            <polygon id="Shape" fill="#282932" points="125.923077 23.2618796 125.564103 15.3949314 125.564103 7 131 7 131 32 126.358974 32 114.282051 16.0021119 114.487179 24.2122492 114.487179 32 109 32 109 7 113.641026 7"></polygon>
            <path d="M153.564103,26.7465681 L140.410256,26.7465681 L138.128205,32 L134,32 L144.897436,7 L149.102564,7 L160,32 L155.871795,32 L153.564103,26.7465681 Z M147,11.2238648 L141.871795,23.1034847 L152.128205,23.1034847 L147,11.2238648 Z" id="Shape" fill="#808284"></path>
            <polygon id="Shape" fill="#808284" points="166.969278 7 166.969278 28.2777191 180 28.2777191 180 32 163 32 163 7"></polygon>
            <path d="M187.884868,24.3259494 L187.884868,32 L184,32 L184,7.02637131 C187.730503,7.02637131 191.538188,7 195.268691,7 C206.897569,7 206.923297,24.2732068 195.268691,24.3259494 L187.884868,24.3259494 Z M187.884868,20.6603376 L195.268691,20.6603376 C201.700593,20.6603376 201.674865,10.6656118 195.268691,10.6656118 L187.884868,10.6656118 L187.884868,20.6603376 Z" id="Shape" fill="#808284"></path>
            <polygon id="Shape" fill="#808284" points="225.072319 32 225.072319 21.5987328 211.98005 21.5987328 211.98005 32 208 32 208 7 211.98005 7 211.98005 17.876452 225.072319 17.876452 225.072319 7 229 7 229 32"></polygon>
            <path d="M252.544828,26.7465681 L239.403941,26.7465681 L237.124138,32 L233,32 L243.8867,7 L248.1133,7 L259,32 L254.875862,32 L252.544828,26.7465681 Z M245.987192,11.2238648 L240.864039,23.1034847 L251.110345,23.1034847 L245.987192,11.2238648 Z" id="Shape" fill="#808284"></path>
            <g id="Group" transform="translate(61.000000, 38.000000)" fill="#0D71BA">
                <path d="M5.03337679,6.81851852 L0.233507171,6.81851852 C0.233507171,4.64074074 0.233507171,2.46296296 0.233507171,0.311111111 L5.00743155,0.311111111 L5.00743155,1.32222222 L1.27131682,1.32222222 L1.27131682,3.08518519 L4.87770535,3.08518519 L4.87770535,4.04444444 L1.27131682,4.04444444 L1.27131682,5.78148148 L5.03337679,5.78148148 L5.03337679,6.81851852 Z" id="Shape"></path>
                <path d="M13.1542373,1.84074074 L10.9488918,4.92592593 L10.7153846,4.92592593 L8.53598435,1.84074074 L8.53598435,6.84444444 L7.49817471,6.84444444 L7.49817471,0.337037037 C7.91329857,0.337037037 8.27653194,0.337037037 8.71760104,0.337037037 L10.8710561,3.3962963 L13.0245111,0.337037037 L14.2439374,0.337037037 L14.2439374,6.84444444 L13.2061278,6.84444444 L13.2061278,1.84074074 L13.1542373,1.84074074 Z" id="Shape"></path>
                <path d="M18.0059974,4.82222222 L18.0059974,6.81851852 L16.9681877,6.81851852 L16.9681877,0.311111111 C17.9541069,0.311111111 18.9919166,0.311111111 19.9778357,0.311111111 C23.0912647,0.311111111 23.0912647,4.82222222 19.9778357,4.82222222 L18.0059974,4.82222222 Z M18.0059974,3.86296296 L19.9778357,3.86296296 C21.7161669,3.86296296 21.6902216,1.27037037 19.9778357,1.27037037 L18.0059974,1.27037037 L18.0059974,3.86296296 Z" id="Shape"></path>
                <path d="M30.7970013,3.57777778 C30.7970013,5.34074074 29.7332464,6.94814815 27.4500652,6.94814815 C25.1928292,6.94814815 24.1031291,5.31481481 24.1031291,3.57777778 C24.1031291,1.60740741 25.5041721,0.155555556 27.4500652,0.155555556 C29.7073012,0.181481481 30.7970013,1.84074074 30.7970013,3.57777778 Z M27.4500652,5.98888889 C29.0586701,5.98888889 29.7591917,4.84814815 29.7591917,3.6037037 C29.7591917,2.41111111 29.0846154,1.16666667 27.4760104,1.14074074 C25.9711864,1.14074074 25.166884,2.2037037 25.166884,3.6037037 C25.166884,4.77037037 25.8414602,5.98888889 27.4500652,5.98888889 Z" id="Shape"></path>
                <polygon id="Shape" points="39.6443286 6.81851852 38.7102999 6.81851852 37.8541069 4.51111111 37.1535854 2.33333333 36.4271186 4.53703704 35.5709257 6.81851852 34.6628422 6.81851852 32.3018253 0.311111111 33.4693611 0.311111111 35.1298566 5.31481481 36.8162973 0.311111111 37.4908735 0.311111111 39.2032595 5.31481481 40.8378096 0.311111111 42.0053455 0.311111111"></polygon>
                <path d="M48.9067797,6.81851852 L44.0809648,6.81851852 C44.0809648,4.64074074 44.0809648,2.46296296 44.0809648,0.311111111 L48.8548892,0.311111111 L48.8548892,1.32222222 L45.1187744,1.32222222 L45.1187744,3.08518519 L48.6992177,3.08518519 L48.6992177,4.04444444 L45.1187744,4.04444444 L45.1187744,5.78148148 L48.8808344,5.78148148 L48.8808344,6.81851852 L48.9067797,6.81851852 Z" id="Shape"></path>
                <path d="M56.9757497,6.81851852 L55.7563233,6.81851852 L53.7585398,4.56296296 L52.4093872,4.56296296 L52.4093872,6.81851852 L51.3715776,6.81851852 L51.3715776,0.285185185 C52.383442,0.285185185 53.3953064,0.285185185 54.4071708,0.285185185 C55.9119948,0.285185185 56.7162973,1.32222222 56.7162973,2.41111111 C56.7162973,3.34444444 56.2233377,4.25185185 54.9520209,4.43333333 L56.897914,6.61111111 L56.9757497,6.81851852 Z M52.4093872,1.24444444 L52.4093872,3.6037037 L54.3812256,3.6037037 C55.2374185,3.6037037 55.6265971,3.05925926 55.6265971,2.43703704 C55.6265971,1.84074074 55.2374185,1.24444444 54.3812256,1.24444444 L52.4093872,1.24444444 Z" id="Shape"></path>
                <polygon id="Shape" points="59.1810952 6.81851852 59.1810952 0.311111111 60.2189048 0.311111111 60.2189048 6.81851852"></polygon>
                <polygon id="Shape" points="67.4835724 4.92592593 67.4835724 0.285185185 68.521382 0.285185185 68.521382 6.79259259 67.7430248 6.79259259 64.0588005 2.2037037 64.0588005 6.79259259 62.9950456 6.79259259 62.9950456 0.285185185 63.7993481 0.285185185"></polygon>
                <path d="M76.0714472,1.78888889 C75.6044329,1.32222222 74.9039113,1.08888889 74.3071708,1.08888889 C72.7764016,1.08888889 71.8942634,2.22962963 71.8942634,3.6037037 C71.8942634,4.7962963 72.5947849,5.96296296 74.3071708,5.96296296 C74.8779661,5.96296296 75.3709257,5.83333333 75.8898305,5.39259259 L75.8898305,4.07037037 L74.0736636,4.07037037 L74.0736636,3.13703704 L76.8498044,3.13703704 L76.8498044,5.80740741 C76.2011734,6.53333333 75.3968709,6.94814815 74.2812256,6.94814815 C71.8942634,6.94814815 70.8564537,5.36666667 70.8564537,3.62962963 C70.8564537,1.76296296 72.0499348,0.155555556 74.2812256,0.155555556 C75.1374185,0.155555556 76.0195567,0.492592593 76.694133,1.14074074 L76.0714472,1.78888889 Z" id="Shape"></path>
                <polygon id="Shape" points="84.763103 3.18888889 86.6052151 0.311111111 87.8505867 0.311111111 87.8505867 0.362962963 85.2560626 4.14814815 85.2560626 6.81851852 84.2182529 6.81851852 84.2182529 4.14814815 81.7015645 0.362962963 81.7015645 0.311111111 82.9469361 0.311111111"></polygon>
                <path d="M95.7119948,3.57777778 C95.7119948,5.34074074 94.6482399,6.94814815 92.3910039,6.94814815 C90.1337679,6.94814815 89.070013,5.31481481 89.070013,3.57777778 C89.070013,1.60740741 90.4451108,0.155555556 92.4169492,0.155555556 C94.6222947,0.181481481 95.7119948,1.84074074 95.7119948,3.57777778 Z M92.3650587,5.98888889 C93.9736636,5.98888889 94.6741851,4.84814815 94.6741851,3.6037037 C94.6741851,2.41111111 93.9736636,1.16666667 92.3910039,1.14074074 C90.8861799,1.14074074 90.0818774,2.2037037 90.0818774,3.6037037 C90.0818774,4.77037037 90.7564537,5.98888889 92.3650587,5.98888889 Z" id="Shape"></path>
                <path d="M103.495567,0.311111111 L103.495567,4.12222222 C103.495567,6.04074074 102.22425,7 100.667536,6.94814815 C99.2146023,6.8962963 97.9692308,5.98888889 97.9692308,4.12222222 L97.9692308,0.311111111 L99.0070404,0.311111111 L99.0070404,4.12222222 C99.0070404,5.31481481 99.7075619,5.93703704 100.667536,5.98888889 C101.705346,6.04074074 102.483703,5.36666667 102.483703,4.12222222 L102.483703,0.311111111 L103.495567,0.311111111 Z" id="Shape"></path>
                <path d="M111.798044,6.81851852 L110.578618,6.81851852 L108.60678,4.56296296 L107.231682,4.56296296 L107.231682,6.81851852 L106.193872,6.81851852 L106.193872,0.285185185 C107.205737,0.285185185 108.217601,0.285185185 109.229465,0.285185185 C110.734289,0.285185185 111.538592,1.32222222 111.538592,2.41111111 C111.538592,3.34444444 111.045632,4.25185185 109.774316,4.43333333 L111.720209,6.61111111 L111.798044,6.81851852 Z M107.231682,1.24444444 L107.231682,3.6037037 L109.20352,3.6037037 C110.059713,3.6037037 110.448892,3.05925926 110.448892,2.43703704 C110.448892,1.84074074 110.059713,1.24444444 109.20352,1.24444444 L107.231682,1.24444444 Z" id="Shape"></path>
                <path d="M121.683181,5.44444444 L118.154628,5.44444444 L117.531943,6.81851852 L116.416297,6.81851852 L119.34811,0.311111111 L120.4897,0.311111111 L123.421512,6.81851852 L122.305867,6.81851852 L121.683181,5.44444444 Z M119.918905,1.4 L118.543807,4.48518519 L121.294003,4.48518519 L119.918905,1.4 Z" id="Shape"></path>
                <polygon id="Shape" points="125.419296 6.81851852 125.419296 0.311111111 130.037549 0.311111111 130.037549 1.32222222 126.483051 1.32222222 126.483051 3.29259259 129.881877 3.29259259 129.881877 4.25185185 126.483051 4.25185185 126.483051 6.79259259 125.419296 6.79259259"></polygon>
                <path d="M133.851499,1.24444444 L131.72399,1.24444444 L131.72399,0.311111111 C133.592047,0.311111111 135.174707,0.311111111 137.042764,0.311111111 L137.042764,1.24444444 L134.915254,1.24444444 L134.915254,6.81851852 L133.877445,6.81851852 L133.877445,1.24444444 L133.851499,1.24444444 Z" id="Shape"></path>
                <path d="M143.944198,6.81851852 L139.118383,6.81851852 C139.118383,4.64074074 139.118383,2.46296296 139.118383,0.311111111 L143.892308,0.311111111 L143.892308,1.32222222 L140.156193,1.32222222 L140.156193,3.08518519 L143.762581,3.08518519 L143.762581,4.04444444 L140.156193,4.04444444 L140.156193,5.78148148 L143.918253,5.78148148 L143.918253,6.81851852 L143.944198,6.81851852 Z" id="Shape"></path>
                <path d="M152.039113,6.81851852 L150.819687,6.81851852 L148.847849,4.56296296 L147.472751,4.56296296 L147.472751,6.81851852 L146.434941,6.81851852 L146.434941,0.285185185 C147.446806,0.285185185 148.45867,0.285185185 149.470535,0.285185185 C150.975359,0.285185185 151.779661,1.32222222 151.779661,2.41111111 C151.779661,3.34444444 151.286701,4.25185185 150.015385,4.43333333 L151.961278,6.61111111 L152.039113,6.81851852 Z M147.446806,1.24444444 L147.446806,3.6037037 L149.444589,3.6037037 C150.300782,3.6037037 150.689961,3.05925926 150.689961,2.43703704 C150.689961,1.84074074 150.300782,1.24444444 149.444589,1.24444444 L147.446806,1.24444444 Z" id="Shape"></path>
                <path d="M159.926467,1.84074074 L157.721121,4.92592593 L157.487614,4.92592593 L155.308214,1.84074074 L155.308214,6.84444444 L154.270404,6.84444444 L154.270404,0.337037037 C154.685528,0.337037037 155.048761,0.337037037 155.489831,0.337037037 L157.643286,3.3962963 L159.770795,0.337037037 L160.990222,0.337037037 L160.990222,6.84444444 L159.952412,6.84444444 L159.952412,1.84074074 L159.926467,1.84074074 Z" id="Shape"></path>
                <path d="M168.228944,5.44444444 L164.700391,5.44444444 L164.077705,6.81851852 L162.96206,6.81851852 L165.893872,0.311111111 L167.035463,0.311111111 L169.967275,6.81851852 L168.85163,6.81851852 L168.228944,5.44444444 Z M166.464668,1.4 L165.08957,4.48518519 L167.839765,4.48518519 L166.464668,1.4 Z" id="Shape"></path>
                <path d="M177.621121,6.81851852 L176.401695,6.81851852 L174.429857,4.56296296 L173.054759,4.56296296 L173.054759,6.81851852 L172.016949,6.81851852 L172.016949,0.285185185 C173.028814,0.285185185 174.040678,0.285185185 175.052542,0.285185185 C176.557366,0.285185185 177.361669,1.32222222 177.361669,2.41111111 C177.361669,3.34444444 176.868709,4.25185185 175.597392,4.43333333 L177.543286,6.61111111 L177.621121,6.81851852 Z M173.028814,1.24444444 L173.028814,3.6037037 L175.000652,3.6037037 C175.856845,3.6037037 176.246023,3.05925926 176.246023,2.43703704 C176.246023,1.84074074 175.856845,1.24444444 175.000652,1.24444444 L173.028814,1.24444444 Z" id="Shape"></path>
                <polygon id="Shape" points="184.807953 0.337037037 181.82425 3.44814815 185.067405 6.74074074 185.067405 6.81851852 183.770143 6.81851852 180.864276 3.83703704 180.864276 6.81851852 179.826467 6.81851852 179.826467 0.311111111 180.864276 0.311111111 180.864276 3.11111111 183.510691 0.311111111 184.807953 0.311111111"></polygon>
                <path d="M191.787223,6.81851852 L186.961408,6.81851852 C186.961408,4.64074074 186.961408,2.46296296 186.961408,0.311111111 L191.735332,0.311111111 L191.735332,1.32222222 L187.999218,1.32222222 L187.999218,3.08518519 L191.579661,3.08518519 L191.579661,4.04444444 L187.999218,4.04444444 L187.999218,5.78148148 L191.761278,5.78148148 L191.761278,6.81851852 L191.787223,6.81851852 Z" id="Shape"></path>
                <path d="M195.7309,1.24444444 L193.577445,1.24444444 L193.577445,0.311111111 C195.445502,0.311111111 197.028162,0.311111111 198.896219,0.311111111 L198.896219,1.24444444 L196.768709,1.24444444 L196.768709,6.81851852 L195.704954,6.81851852 L195.704954,1.24444444 L195.7309,1.24444444 Z" id="Shape"></path>
            </g>
            <path d="M21.6071233,52 L19.3923288,45.3733133 C18.5167123,45.0874563 17.6410959,44.7236382 16.8169863,44.3078461 L10.610411,47.4522739 L4.58410959,41.4232884 L7.67452055,35.1604198 C7.26246575,34.3288356 6.90191781,33.4712644 6.61863014,32.5877061 L0,30.4047976 L0,21.8290855 L6.56712329,19.5942029 C6.85041096,18.7106447 7.2109589,17.8530735 7.6230137,16.9955022 L4.48109589,10.7326337 L10.4558904,4.65167416 L16.6624658,7.77011494 C17.4865753,7.35432284 18.3364384,6.99050475 19.2120548,6.67866067 L21.4010959,0 L29.8739726,0 L32.0887671,6.62668666 C32.9643836,6.91254373 33.84,7.27636182 34.6641096,7.69215392 L40.8706849,4.54772614 L46.8969863,10.5767116 L40.5358904,23.2323838 L38.269589,19.1264368 L42.1841096,11.3563218 L40.1238356,9.30334833 L34.6126027,12.109945 L33.7112329,11.5902049 C32.6038356,10.9665167 31.3676712,10.4467766 30.08,10.0829585 L29.1013699,9.79710145 L27.1183562,3.89805097 L24.1824658,3.89805097 L22.2509589,9.84907546 L21.2723288,10.1349325 C19.9846575,10.4987506 18.7742466,11.0184908 17.6410959,11.6681659 L16.739726,12.187906 L11.2284932,9.38130935 L9.16821918,11.4602699 L11.949589,17.0214893 L11.460274,17.9310345 C10.8164384,19.0744628 10.3271233,20.3218391 9.99232877,21.5952024 L9.7090411,22.6086957 L3.83726027,24.6096952 L3.83726027,27.5462269 L9.73479452,29.4952524 L10.0180822,30.4827586 C10.3786301,31.7821089 10.8936986,33.0034983 11.5375342,34.1469265 L12.0526027,35.0564718 L9.32273973,40.6436782 L11.3830137,42.7226387 L16.8942466,39.916042 L17.7956164,40.4097951 C18.9287671,41.0594703 20.1391781,41.5532234 21.4268493,41.8910545 L22.4312329,42.1769115 L24.4142466,48.101949 L27.3243836,48.101949 L29.2558904,42.1509245 L30.2345205,41.8650675 C31.5221918,41.5012494 32.7326027,40.9815092 33.8657534,40.3318341 L34.7671233,39.812094 L40.3041096,42.5667166 L42.3643836,40.4877561 L40.0465753,35.836082 L31.7539726,20.8675662 C30.6465753,18.9185407 27.8652055,17.8530735 25.7791781,17.8530735 C21.3238356,17.8790605 17.7183562,21.5172414 17.7441096,25.9870065 C17.769863,30.4307846 21.3753425,34.0689655 25.7791781,34.0689655 C27.4273973,34.0689655 28.9726027,33.5752124 30.2860274,32.6656672 L27.9167123,28.2738631 L22.0449315,28.2738631 L22.0449315,24.3758121 L30.2087671,24.3758121 L35.1019178,33.4972514 L34.0717808,34.5367316 C31.8312329,36.7456272 28.8953425,37.9670165 25.8049315,37.9670165 C19.2378082,37.9670165 13.8810959,32.6136932 13.8553425,26.0129935 C13.829589,19.3863068 19.1605479,13.9810095 25.7019178,13.9550225 C28.869589,13.9550225 33.1189041,15.5142429 35.050411,18.9445277 L43.3945205,34.0169915 L47,41.2413793 L41.0252055,47.3483258 L34.8186301,44.2298851 C33.9945205,44.6456772 33.1446575,45.0094953 32.2432877,45.2953523 L30.08,51.974013 L21.6071233,51.974013 L21.6071233,52 Z" id="Shape" fill="#0D71BA"></path>
        </g>
    </g>
</svg>