<?xml version="1.0" encoding="UTF-8"?>
<svg width="260px" height="60px" viewBox="0 0 260 60" version="1.1" xmlns="http://www.w3.org/2000/svg" xmlns:xlink="http://www.w3.org/1999/xlink">
    <!-- Generator: Sketch 50.2 (55047) - http://www.bohemiancoding.com/sketch -->
    <title>MIlacron_SVG</title>
    <desc>Created with Sketch.</desc>
    <defs></defs>
    <g id="MIlacron_SVG" stroke="none" stroke-width="1" fill="none" fill-rule="evenodd">
        <g id="Group-4" transform="translate(0.000000, 1.000000)">
            <g id="Group-3" transform="translate(75.000000, 13.000000)" fill="#53585A">
                <path d="M0.672916068,32.1298174 L0.672916068,1.20486815 L7.59579428,1.20486815 L10.6824279,23.3382961 L10.7706174,23.3382961 L13.857251,1.20486815 L20.7801292,1.20486815 L20.7801292,32.1298174 L16.1942736,32.1298174 L16.1942736,8.71521298 L16.1060841,8.71521298 L12.5785028,32.1298174 L8.52178436,32.1298174 L4.99420311,8.71521298 L4.90601358,8.71521298 L4.90601358,32.1298174 L0.672916068,32.1298174 Z M30.007961,32.1298174 L30.007961,1.20486815 L34.8583852,1.20486815 L34.8583852,32.1298174 L30.007961,32.1298174 Z M44.086217,32.1298174 L44.086217,1.20486815 L48.9366412,1.20486815 L48.9366412,27.7119675 L56.9177938,27.7119675 L56.9177938,32.1298174 L44.086217,32.1298174 Z M63.7645083,32.1298174 L68.7913116,1.20486815 L75.3614316,1.20486815 L80.3882349,32.1298174 L75.5378107,32.1298174 L74.6559154,25.9890061 L74.6559154,26.0773631 L69.1440697,26.0773631 L68.2621744,32.1298174 L63.7645083,32.1298174 Z M69.7173016,21.8804057 L74.0826834,21.8804057 L71.9220399,6.59464503 L71.8338504,6.59464503 L69.7173016,21.8804057 Z M95.0838177,32.5716024 C90.4097725,32.5716024 87.9404656,29.7441785 87.9404656,24.9729006 L87.9404656,8.36178499 C87.9404656,3.5905071 90.4097725,0.763083164 95.0838177,0.763083164 C99.7578628,0.763083164 102.22717,3.5905071 102.22717,8.36178499 L102.22717,11.6309939 L97.6413141,11.6309939 L97.6413141,8.0525355 C97.6413141,6.02032454 96.6712292,5.18093306 95.216102,5.18093306 C93.7609747,5.18093306 92.7908898,6.02032454 92.7908898,8.0525355 L92.7908898,25.3263286 C92.7908898,27.3585396 93.7609747,28.1537525 95.216102,28.1537525 C96.6712292,28.1537525 97.6413141,27.3585396 97.6413141,25.3263286 L97.6413141,20.5992292 L102.22717,20.5992292 L102.22717,24.9729006 C102.22717,29.7441785 99.7578628,32.5716024 95.0838177,32.5716024 Z M110.749485,32.1298174 L110.749485,1.20486815 L117.936932,1.20486815 C122.963735,1.20486815 125.124379,3.5463286 125.124379,8.31760649 L125.124379,10.2172819 C125.124379,13.3981339 124.110199,15.4303448 121.949556,16.3139148 L121.949556,16.4022718 C124.374768,17.1533063 125.168474,19.4505882 125.168474,22.9406897 L125.168474,28.374645 C125.168474,29.876714 125.212568,30.9811765 125.697611,32.1298174 L120.758997,32.1298174 C120.494428,31.3346045 120.318049,30.848641 120.318049,28.3304665 L120.318049,22.6756187 C120.318049,19.8040162 119.480249,18.8762677 117.275511,18.8762677 L115.599909,18.8762677 L115.599909,32.1298174 L110.749485,32.1298174 Z M115.599909,14.4584178 L117.3637,14.4584178 C119.171585,14.4584178 120.273955,13.6632049 120.273955,11.1892089 L120.273955,8.80356998 C120.273955,6.59464503 119.524344,5.62271805 117.804648,5.62271805 L115.599909,5.62271805 L115.599909,14.4584178 Z M141.142805,32.5716024 C136.38057,32.5716024 133.778979,29.7441785 133.778979,24.7961866 L133.778979,8.53849899 C133.778979,3.5905071 136.38057,0.763083164 141.142805,0.763083164 C145.905039,0.763083164 148.50663,3.5905071 148.50663,8.53849899 L148.50663,24.7961866 C148.50663,29.7441785 145.905039,32.5716024 141.142805,32.5716024 Z M141.142805,28.1537525 C142.686121,28.1537525 143.656206,27.3143611 143.656206,25.1054361 L143.656206,8.22924949 C143.656206,6.02032454 142.686121,5.18093306 141.142805,5.18093306 C139.599488,5.18093306 138.629403,6.02032454 138.629403,8.22924949 L138.629403,25.1054361 C138.629403,27.3143611 139.599488,28.1537525 141.142805,28.1537525 Z M157.381704,32.1298174 L157.381704,1.20486815 L163.466782,1.20486815 L168.184922,19.7156592 L168.273111,19.7156592 L168.273111,1.20486815 L172.594398,1.20486815 L172.594398,32.1298174 L167.61169,32.1298174 L161.791181,9.55460446 L161.702991,9.55460446 L161.702991,32.1298174 L157.381704,32.1298174 Z" id="milacron"></path>
                <path d="M179.68163,10.1610548 C177.276461,10.1610548 175.496636,8.31760649 175.496636,5.82352941 C175.496636,3.32945233 177.276461,1.48600406 179.68163,1.48600406 C182.086799,1.48600406 183.866624,3.32945233 183.866624,5.82352941 C183.866624,8.31760649 182.086799,10.1610548 179.68163,10.1610548 Z M179.68163,9.31764706 C181.617791,9.31764706 183.000764,7.85975659 183.000764,5.82352941 C183.000764,3.78730223 181.617791,2.32941176 179.68163,2.32941176 C177.745469,2.32941176 176.362497,3.78730223 176.362497,5.82352941 C176.362497,7.85975659 177.745469,9.31764706 179.68163,9.31764706 Z M178.358787,8.40194726 L178.358787,3.24511156 L179.753785,3.24511156 C180.691801,3.24511156 181.112706,3.69091278 181.112706,4.59456389 L181.112706,4.70300203 C181.112706,5.25724138 180.920292,5.63075051 180.487362,5.82352941 L180.487362,5.84762677 C180.95637,6.04040568 181.112706,6.46210953 181.112706,7.07659229 L181.112706,7.69107505 C181.112706,7.96819473 181.124732,8.18507099 181.220939,8.40194726 L180.282923,8.40194726 C180.222793,8.2453144 180.198742,8.16097363 180.198742,7.67902637 L180.198742,7.06454361 C180.198742,6.51030426 180.006328,6.31752535 179.585424,6.31752535 L179.272752,6.31752535 L179.272752,8.40194726 L178.358787,8.40194726 Z M179.272752,5.47411765 L179.645553,5.47411765 C179.982276,5.47411765 180.198742,5.32953347 180.198742,4.85963489 L180.198742,4.70300203 C180.198742,4.28129817 180.054432,4.08851927 179.705682,4.08851927 L179.272752,4.08851927 L179.272752,5.47411765 Z" id="®"></path>
            </g>
            <g id="Group-2">
                <g id="Group" transform="translate(0.000000, 16.000000)">
                    <path d="M28.1118342,32.723999 L28.0675862,16.5217621 L55.4244993,0.442782596 C55.6625665,0.302858994 55.9689886,0.38242011 56.1089122,0.620487321 C56.1540523,0.69728907 56.1778534,0.784756413 56.1778534,0.873841413 L56.1778534,32.5462988 L42.1879928,40.6149754 L42.1879928,24.589341 L28.1118342,32.723999 Z" id="Path-2" fill="#C30E2E"></path>
                    <path d="M0.200482567,32.7311603 L0.200482567,16.5057465 L27.4261555,0.444826806 C27.663997,0.304519806 27.9705469,0.383587103 28.1108539,0.621428557 C28.1562565,0.69839291 28.1802038,0.786118506 28.1802038,0.875476853 L28.1802038,32.5462988 L14.1903432,40.6149754 L14.1903432,24.589341 L0.200482567,32.7311603 Z" id="Path-2" fill="#8B2131" transform="translate(14.190343, 20.495187) scale(-1, 1) translate(-14.190343, -20.495187) "></path>
                </g>
                <path d="M14.7994171,8.24972029 L27.5380529,15.4812904 C27.6931323,15.5693271 27.8833614,15.5681062 28.0372981,15.4780864 L40.4034984,8.24651766 C40.6418736,8.10711941 40.7221103,7.80087352 40.5827121,7.56249831 C40.539389,7.48841448 40.4777263,7.42672891 40.4036585,7.38337832 L28.0374558,0.145651869 C27.8834391,0.0555084856 27.6930532,0.0542861304 27.5378917,0.142444462 L14.7992582,7.38016955 C14.5591633,7.51658456 14.4751142,7.82180614 14.6115292,8.06190103 C14.6560759,8.14030484 14.720997,8.20520216 14.7994171,8.24972029 Z" id="Path-3" fill="#8B2131"></path>
            </g>
        </g>
    </g>
</svg>